<?xml version="1.0" encoding="iso-8859-1"?>
<!-- Generator: Adobe Illustrator 19.1.0, SVG Export Plug-In . SVG Version: 6.00 Build 0)  -->
<svg version="1.1" xmlns="http://www.w3.org/2000/svg" xmlns:xlink="http://www.w3.org/1999/xlink" x="0px" y="0px"
	 viewBox="0 0 326.667 326.667" style="enable-background:new 0 0 326.667 326.667;" xml:space="preserve">
<g id="Layer_1">
	<linearGradient id="SVGID_1_" gradientUnits="userSpaceOnUse" x1="163.3333" y1="303.9852" x2="163.3333" y2="22.6814">
		<stop  offset="0" style="stop-color:#ED1C24"/>
		<stop  offset="1" style="stop-color:#891E2D"/>
	</linearGradient>
	<path style="fill:url(#SVGID_1_);" d="M300.031,48.245l-1.011-1.011c-32.737-32.737-86.306-32.737-119.043,0l-16.644,16.644
		L146.69,47.234c-32.737-32.737-86.306-32.737-119.043,0l-1.011,1.011c-32.737,32.737-32.737,86.306,0,119.043l16.644,16.644
		l120.054,120.054l120.054-120.054l16.644-16.644C332.768,134.551,332.768,80.982,300.031,48.245z"/>
</g>
<g id="Layer_2">
	<path style="fill:#ED1C24;" d="M285.129,60.791l-0.901-0.901c-29.168-29.168-76.898-29.168-106.066,0l-14.829,14.829L148.504,59.89
		c-29.168-29.168-76.898-29.168-106.066,0l-0.901,0.901c-29.168,29.168-29.168,76.898,0,106.066l14.829,14.829l106.967,106.967
		L270.3,181.686l14.829-14.829C314.297,137.689,314.297,89.959,285.129,60.791z"/>
</g>
</svg>
